<svg id="Layer_1" data-name="Layer 1" xmlns="http://www.w3.org/2000/svg" viewBox="0 0 1102.5 202.99"><defs><style>.cls-1{fill:#fff;}</style></defs><path class="cls-1" d="M126.72,149.31H92.21L34.5,62v87.36H0V7.67H34.5L92.21,95.44V7.67h34.51Z"/><path class="cls-1" d="M257.27,101.29H179.18q.8,10.5,6.76,16a20.63,20.63,0,0,0,14.63,5.55q12.9,0,18-10.89h36.73a50.45,50.45,0,0,1-10.19,20,51.16,51.16,0,0,1-18.46,13.93,59.38,59.38,0,0,1-24.82,5q-16.54,0-29.46-7.06a50.19,50.19,0,0,1-20.18-20.18q-7.26-13.11-7.26-30.67T152,62.35a49.59,49.59,0,0,1,20.08-20.18q12.9-7.06,29.66-7.06,16.33,0,29.05,6.86a49.27,49.27,0,0,1,19.88,19.57q7.16,12.72,7.16,29.66A88.75,88.75,0,0,1,257.27,101.29ZM222.56,82.12q0-8.87-6.05-14.12t-15.14-5.25a21.89,21.89,0,0,0-14.63,5q-5.94,5-7.36,14.32Z"/><path class="cls-1" d="M342.62,149.31,321,118l-18.16,31.27H265.54l37.13-57.5L264.53,36.72h38.74L324.86,67.8,343,36.72h37.33l-37.73,56.7,38.74,55.89Z"/><path class="cls-1" d="M443.1,40q8.88-4.85,20.79-4.84a46.62,46.62,0,0,1,25.22,7.06A49,49,0,0,1,507,62.35q6.56,13.11,6.56,30.47T507,123.39a49.53,49.53,0,0,1-17.85,20.38,46.19,46.19,0,0,1-25.22,7.16,43,43,0,0,1-20.69-4.84,37.88,37.88,0,0,1-14-12.51V203h-34.5V36.72h34.5V52.66A37.48,37.48,0,0,1,443.1,40Zm28.15,32.59a23.67,23.67,0,0,0-17.66-7.37,23.25,23.25,0,0,0-17.45,7.47Q429,80.11,429,93t7.16,20.38a24.16,24.16,0,0,0,35-.1q7.26-7.58,7.26-20.48T471.25,72.54Z"/><path class="cls-1" d="M637.21,101.29H559.12q.81,10.5,6.76,16a20.64,20.64,0,0,0,14.63,5.55q12.91,0,18-10.89h36.72A50.32,50.32,0,0,1,625,132a51.16,51.16,0,0,1-18.46,13.93,59.35,59.35,0,0,1-24.82,5q-16.54,0-29.46-7.06a50.19,50.19,0,0,1-20.18-20.18q-7.26-13.11-7.26-30.67T532,62.35a49.65,49.65,0,0,1,20.08-20.18q12.91-7.06,29.66-7.06,16.35,0,29.06,6.86a49.31,49.31,0,0,1,19.87,19.57q7.15,12.72,7.16,29.66A88.75,88.75,0,0,1,637.21,101.29ZM602.5,82.12q0-8.87-6-14.12t-15.13-5.25a21.85,21.85,0,0,0-14.63,5q-6,5-7.37,14.32Z"/><path class="cls-1" d="M756.16,48.33Q768,61.14,768,83.54v65.77h-34.3V88.18q0-11.31-5.85-17.56t-15.74-6.25q-9.9,0-15.74,6.25t-5.85,17.56v61.13H656V36.72h34.51V51.65a36.36,36.36,0,0,1,14.12-11.8,45,45,0,0,1,20-4.34Q744.35,35.51,756.16,48.33Z"/><path class="cls-1" d="M791.67,62.35a49,49,0,0,1,17.85-20.18,46.65,46.65,0,0,1,25.23-7.06A44.41,44.41,0,0,1,855,39.75a37,37,0,0,1,14.42,12.51V0H904V149.31H869.45V133.17a35.16,35.16,0,0,1-13.82,12.92,43.44,43.44,0,0,1-20.88,4.84,46.22,46.22,0,0,1-25.23-7.16,49.53,49.53,0,0,1-17.85-20.38q-6.57-13.22-6.56-30.57T791.67,62.35Zm70.62,10.29a24.24,24.24,0,0,0-34.91-.1q-7.17,7.36-7.16,20.28t7.16,20.48a24,24,0,0,0,34.91.1q7.15-7.47,7.16-20.38T862.29,72.64Z"/><path class="cls-1" d="M928.67,62.35a48.9,48.9,0,0,1,17.86-20.18,46.59,46.59,0,0,1,25.22-7.06A43.27,43.27,0,0,1,992.63,40a35.73,35.73,0,0,1,13.83,12.71V36.72H1041V149.31h-34.5V133.37a37.3,37.3,0,0,1-14,12.72,43.44,43.44,0,0,1-20.88,4.84,45.81,45.81,0,0,1-25-7.16,49.48,49.48,0,0,1-17.86-20.38q-6.55-13.22-6.56-30.57T928.67,62.35Zm70.62,10.29a24.23,24.23,0,0,0-34.9-.1q-7.17,7.36-7.17,20.28t7.17,20.48a24,24,0,0,0,34.9.1q7.17-7.47,7.17-20.38T999.29,72.64Z"/><path class="cls-1" d="M1067.29,145.58a17.33,17.33,0,0,1-5.75-13.22,17.88,17.88,0,0,1,5.75-13.51q5.74-5.46,14.83-5.45,8.88,0,14.63,5.45a17.88,17.88,0,0,1,5.75,13.51,17.33,17.33,0,0,1-5.75,13.22q-5.76,5.35-14.63,5.35Q1073,150.93,1067.29,145.58Z"/></svg>